<svg xmlns="http://www.w3.org/2000/svg" version="1.1" xmlns:xlink="http://www.w3.org/1999/xlink" xmlns:svgjs="http://svgjs.dev/svgjs" width="1500" height="257" viewBox="0 0 1500 257"><g transform="matrix(1,0,0,1,-0.9090909090911055,-1.0236690496268182)"><svg viewBox="0 0 396 68" data-background-color="#000000" preserveAspectRatio="xMidYMid meet" height="257" width="1500" xmlns="http://www.w3.org/2000/svg" xmlns:xlink="http://www.w3.org/1999/xlink"><g id="tight-bounds" transform="matrix(1,0,0,1,0.24000000000003752,0.27085406760554065)"><svg viewBox="0 0 395.5199999999999 67.45829186478892" height="67.45829186478892" width="395.5199999999999"><g><svg viewBox="0 0 532.653480383341 90.84722376237623" height="67.45829186478892" width="395.5199999999999"><g><rect width="8.151936709677624" height="90.84722376237623" x="107.6413952190099" y="0" fill="#ffffff" opacity="1" stroke-width="0" stroke="transparent" fill-opacity="1" class="rect-yte-0" data-fill-palette-color="primary" rx="1%" id="yte-0" data-palette-color="#ffffff"></rect></g><g transform="matrix(1,0,0,1,137.13348038334098,0.22598811881187686)"><svg viewBox="0 0 395.52 90.39524752475248" height="90.39524752475248" width="395.52"><g id="textblocktransform"><svg viewBox="0 0 395.52 90.39524752475248" height="90.39524752475248" width="395.52" id="textblock"><g><svg viewBox="0 0 395.52 90.39524752475248" height="90.39524752475248" width="395.52"><g transform="matrix(1,0,0,1,0,0)"><svg width="395.52" viewBox="0.24 -33.28 147.94 33.82" height="90.39524752475248" data-palette-color="#ffffff"><path d="M15.63-28.98Q16.6-28.98 17.2-28.6 17.8-28.22 18.09-27.39L18.09-27.39 26.71-3.32 28.2-3.32Q29.03-3.32 29.38-2.94 29.74-2.56 29.74-1.66L29.74-1.66Q29.74-0.76 29.38-0.38 29.03 0 28.2 0L28.2 0 19.56 0Q18.73 0 18.37-0.38 18.02-0.76 18.02-1.66L18.02-1.66Q18.02-2.56 18.37-2.94 18.73-3.32 19.56-3.32L19.56-3.32 22.85-3.32 20.85-9.13 9.01-9.13 6.98-3.32 9.94-3.32Q10.77-3.32 11.12-2.94 11.47-2.56 11.47-1.66L11.47-1.66Q11.47-0.76 11.12-0.38 10.77 0 9.94 0L9.94 0 1.78 0Q0.95 0 0.6-0.38 0.24-0.76 0.24-1.66L0.24-1.66Q0.24-2.56 0.6-2.94 0.95-3.32 1.78-3.32L1.78-3.32 3.15-3.32 11.23-25.66 6.67-25.66Q5.83-25.66 5.48-26.04 5.13-26.42 5.13-27.32L5.13-27.32Q5.13-28.22 5.48-28.6 5.83-28.98 6.67-28.98L6.67-28.98 15.63-28.98ZM15.19-25.66L14.72-25.66 10.16-12.45 19.73-12.45 15.19-25.66ZM45.85-22.56Q46.68-22.56 47.03-22.18 47.39-21.8 47.39-20.9L47.39-20.9 47.39-3.32 55.22-3.32Q56.05-3.32 56.41-2.94 56.76-2.56 56.76-1.66L56.76-1.66Q56.76-0.76 56.41-0.38 56.05 0 55.22 0L55.22 0 36.08 0Q35.25 0 34.9-0.38 34.54-0.76 34.54-1.66L34.54-1.66Q34.54-2.56 34.9-2.94 35.25-3.32 36.08-3.32L36.08-3.32 43.72-3.32 43.72-19.24 37.55-19.24Q36.72-19.24 36.36-19.62 36.01-20 36.01-20.9L36.01-20.9Q36.01-21.8 36.36-22.18 36.72-22.56 37.55-22.56L37.55-22.56 45.85-22.56ZM45.07-33.28Q46.41-33.28 46.9-32.92 47.39-32.57 47.39-31.69L47.39-31.69 47.39-28.52Q47.39-27.64 46.9-27.28 46.41-26.93 45.07-26.93L45.07-26.93Q43.72-26.93 43.23-27.28 42.75-27.64 42.75-28.52L42.75-28.52 42.75-31.69Q42.75-32.57 43.23-32.92 43.72-33.28 45.07-33.28L45.07-33.28ZM82.64-23.1Q83.64-23.1 84.05-22.73 84.47-22.36 84.47-21.51L84.47-21.51 84.47-16.87Q84.47-16.02 84.05-15.65 83.64-15.28 82.64-15.28L82.64-15.28Q81.81-15.28 81.46-15.92L81.46-15.92Q80.41-17.92 78.41-18.74 76.41-19.56 73.33-19.56L73.33-19.56Q70.97-19.56 69.64-18.71 68.31-17.87 68.31-16.36L68.31-16.36Q68.31-15.58 68.81-15.09 69.31-14.6 70.28-14.28L70.28-14.28Q71.09-14.01 72.15-13.87 73.21-13.72 74.9-13.55L74.9-13.55Q77.27-13.28 78.72-13.05 80.17-12.82 81.46-12.35L81.46-12.35Q83.42-11.65 84.5-10.3 85.59-8.96 85.59-6.76L85.59-6.76Q85.59-4.57 84.48-2.92 83.37-1.27 81.23-0.37 79.1 0.54 76.12 0.54L76.12 0.54Q73.48 0.54 71.48-0.2 69.48-0.93 67.99-2.42L67.99-2.42 67.99-1.05Q67.99-0.2 67.57 0.17 67.16 0.54 66.16 0.54L66.16 0.54Q65.16 0.54 64.74 0.17 64.33-0.2 64.33-1.05L64.33-1.05 64.33-6.91Q64.33-7.76 64.74-8.13 65.16-8.5 66.16-8.5L66.16-8.5Q66.67-8.5 66.96-8.26 67.26-8.03 67.48-7.5L67.48-7.5Q68.35-5.15 70.41-4.08 72.46-3 75.87-3L75.87-3Q78.71-3 80.22-4.03 81.73-5.05 81.73-6.76L81.73-6.76Q81.73-7.59 81.2-8.13 80.66-8.67 79.66-9.01L79.66-9.01Q78.8-9.28 77.69-9.46 76.58-9.64 74.87-9.81L74.87-9.81Q72.58-10.06 71.04-10.33 69.5-10.6 68.21-11.11L68.21-11.11Q66.43-11.82 65.44-13.07 64.45-14.33 64.45-16.36L64.45-16.36Q64.45-18.48 65.56-20.01 66.67-21.53 68.64-22.31 70.6-23.1 73.09-23.1L73.09-23.1Q75.46-23.1 77.42-22.39 79.39-21.68 80.81-20.41L80.81-20.41 80.81-21.51Q80.81-22.36 81.22-22.73 81.64-23.1 82.64-23.1L82.64-23.1ZM97.72-32.03Q98.55-32.03 98.91-31.65 99.26-31.27 99.26-30.37L99.26-30.37 99.26-18.21Q100.85-20.58 102.93-21.84 105.02-23.1 107.44-23.1L107.44-23.1Q109.66-23.1 111.3-22.13 112.93-21.17 113.81-19.36 114.69-17.55 114.69-15.14L114.69-15.14 114.69-3.32 116.69-3.32Q117.52-3.32 117.88-2.94 118.23-2.56 118.23-1.66L118.23-1.66Q118.23-0.76 117.88-0.38 117.52 0 116.69 0L116.69 0 108.78 0Q107.95 0 107.6-0.38 107.24-0.76 107.24-1.66L107.24-1.66Q107.24-2.56 107.6-2.94 107.95-3.32 108.78-3.32L108.78-3.32 111.03-3.32 111.03-14.77Q111.03-16.94 110.03-18.21 109.03-19.48 107.07-19.48L107.07-19.48Q105-19.48 103.2-18.29 101.41-17.09 100.33-14.99 99.26-12.89 99.26-10.3L99.26-10.3 99.26-3.32 101.51-3.32Q102.34-3.32 102.69-2.94 103.04-2.56 103.04-1.66L103.04-1.66Q103.04-0.76 102.69-0.38 102.34 0 101.51 0L101.51 0 93.6 0Q92.77 0 92.41-0.38 92.06-0.76 92.06-1.66L92.06-1.66Q92.06-2.56 92.41-2.94 92.77-3.32 93.6-3.32L93.6-3.32 95.6-3.32 95.6-28.71 93.35-28.71Q92.52-28.71 92.17-29.09 91.81-29.47 91.81-30.37L91.81-30.37Q91.81-31.27 92.17-31.65 92.52-32.03 93.35-32.03L93.35-32.03 97.72-32.03ZM135-23.1Q139.59-23.1 141.88-21.04 144.18-18.99 144.18-14.97L144.18-14.97 144.18-5.25Q144.18-3.32 145.79-3.32L145.79-3.32 146.65-3.32Q147.48-3.32 147.83-2.94 148.18-2.56 148.18-1.66L148.18-1.66Q148.18-0.76 147.83-0.38 147.48 0 146.65 0L146.65 0 145.08 0Q143.5 0 142.36-0.79 141.23-1.59 140.88-3.13L140.88-3.13Q138.88-1.37 136.55-0.42 134.22 0.54 131.61 0.54L131.61 0.54Q129.14 0.54 127.25-0.31 125.36-1.15 124.28-2.76 123.21-4.37 123.21-6.59L123.21-6.59Q123.21-10.45 125.97-12.29 128.73-14.14 133.1-14.14L133.1-14.14Q136.98-14.14 140.52-12.89L140.52-12.89 140.52-14.97Q140.52-17.33 139.19-18.44 137.86-19.56 134.9-19.56L134.9-19.56Q133.07-19.56 131.09-19.04 129.12-18.53 127.33-17.63L127.33-17.63Q126.92-17.41 126.58-17.41L126.58-17.41Q125.77-17.41 125.23-18.58L125.23-18.58Q124.97-19.17 124.97-19.56L124.97-19.56Q124.97-20.41 125.87-20.87L125.87-20.87Q127.92-21.95 130.28-22.52 132.63-23.1 135-23.1L135-23.1ZM133.12-10.69Q130.31-10.69 128.69-9.73 127.07-8.76 127.07-6.67L127.07-6.67Q127.07-4.88 128.3-3.89 129.53-2.91 131.75-2.91L131.75-2.91Q136.61-2.91 140.52-6.93L140.52-6.93 140.52-9.59Q138.86-10.13 136.95-10.41 135.05-10.69 133.12-10.69L133.12-10.69Z" opacity="1" transform="matrix(1,0,0,1,0,0)" fill="#ffffff" class="wordmark-text-0" data-fill-palette-color="primary" id="text-0"></path></svg></g></svg></g></svg></g></svg></g><g transform="matrix(1,0,0,1,0,0.22598811881187686)"><svg viewBox="0 0 86.30124676435643 90.39524752475248" height="90.39524752475248" width="86.30124676435643"><g><svg version="1.0" xmlns="http://www.w3.org/2000/svg" xmlns:xlink="http://www.w3.org/1999/xlink" x="0" y="0" viewBox="0 0 95.471 100" enable-background="new 0 0 95.471 100" xml:space="preserve" id="icon-0" width="86.30124676435643" height="90.39524752475248" class="icon-icon-0" data-fill-palette-color="accent"><path d="M47.735 0C47.652 2.825 45.997 13.412 27.936 30.934 10.554 47.797 2.439 49.824 0 50 2.439 50.178 10.554 52.204 27.936 69.066 45.997 86.589 47.652 97.177 47.735 100 47.818 97.177 49.474 86.589 67.533 69.066 84.917 52.204 93.031 50.178 95.471 50 93.032 49.824 84.917 47.797 67.533 30.934 49.475 13.412 47.819 2.825 47.735 0" fill="#ffffff" data-fill-palette-color="accent"></path></svg></g></svg></g></svg></g><defs></defs></svg><rect width="395.5199999999999" height="67.45829186478892" fill="none" stroke="none" visibility="hidden"></rect></g></svg></g></svg>